<svg width="46" height="46" viewBox="0 0 46 46" fill="none" xmlns="http://www.w3.org/2000/svg">
<g clip-path="url(#clip0_7379_28921)">
<rect width="46" height="46" rx="4" fill="white"/>
<g clip-path="url(#clip1_7379_28921)">
<path d="M40.7126 5.28736H5.28736V40.7126H40.7126V5.28736ZM46 46H0V0H46V46Z" fill="#51A2FF"/>
<path d="M14.4063 18.2666C15.6559 18.2667 16.7078 18.4748 17.5621 18.891C18.4163 19.2946 19.0666 19.9505 19.5128 20.8586C19.9591 21.7541 20.1822 22.946 20.1822 24.4343C20.1822 25.7392 19.9915 26.8236 19.6102 27.6876H28.5454C29.1625 27.6876 29.6659 27.1896 29.6659 26.5792C29.6659 25.9687 29.1625 25.4707 28.5454 25.4707H23.5113C21.6438 25.31 20.1822 23.7678 20.1822 21.8883C20.1822 19.9124 21.8061 18.306 23.8198 18.306H33.5796V21.0691C33.5796 21.0691 23.8259 21.069 23.8198 21.053C23.3489 21.053 22.9753 21.4385 22.9753 21.8883C22.9753 22.3381 23.3651 22.7076 23.8198 22.7076H28.5616C30.7052 22.7076 32.4591 24.4426 32.4591 26.5792C32.4591 28.7157 30.7052 30.4507 28.5454 30.4507H15.0965L15.132 30.4255C14.8982 30.4421 14.6563 30.4507 14.4063 30.4507H9.07031V18.2666H14.4063ZM36.9295 30.4507H33.5842V21.0691H36.9295V30.4507ZM12.1495 28.1047H13.9855C14.6486 28.1047 15.2032 28.0101 15.6494 27.8209C16.1085 27.6191 16.4528 27.2533 16.6823 26.7236C16.9245 26.1939 17.0457 25.4307 17.0457 24.4343C17.0457 23.4253 16.9372 22.6496 16.7205 22.1073C16.5165 21.5524 16.185 21.1677 15.726 20.9532C15.2797 20.7262 14.6996 20.6127 13.9855 20.6127H12.1495V28.1047ZM36.9284 18.3123H33.5831V15.5493H36.9284V18.3123Z" fill="#51A2FF"/>
</g>
</g>
<defs>
<clipPath id="clip0_7379_28921">
<rect width="46" height="46" rx="4" fill="white"/>
</clipPath>
<clipPath id="clip1_7379_28921">
<rect width="46" height="46" fill="white"/>
</clipPath>
</defs>
</svg>
